<mxfile host="app.diagrams.net" modified="2021-04-18T00:17:27.461Z" agent="5.0 (Windows NT 10.0; Win64; x64) AppleWebKit/537.36 (KHTML, like Gecko) Chrome/89.0.4389.128 Safari/537.36" etag="Ksb9aRISirSs4PdJd8-Z" version="14.6.1" type="github">
  <diagram id="R2lEEEUBdFMjLlhIrx00" name="Page-1">
    <mxGraphModel dx="1422" dy="794" grid="1" gridSize="10" guides="1" tooltips="1" connect="1" arrows="1" fold="1" page="1" pageScale="1" pageWidth="850" pageHeight="1100" math="0" shadow="0" extFonts="Permanent Marker^https://fonts.googleapis.com/css?family=Permanent+Marker">
      <root>
        <mxCell id="0" />
        <mxCell id="1" parent="0" />
        <mxCell id="2-hJuOmILzFzyRzJbSwl-1" value="" style="rounded=1;whiteSpace=wrap;html=1;" vertex="1" parent="1">
          <mxGeometry x="180" y="320" width="120" height="60" as="geometry" />
        </mxCell>
        <mxCell id="2-hJuOmILzFzyRzJbSwl-2" value="" style="rounded=1;whiteSpace=wrap;html=1;" vertex="1" parent="1">
          <mxGeometry x="560" y="60" width="120" height="60" as="geometry" />
        </mxCell>
        <mxCell id="2-hJuOmILzFzyRzJbSwl-3" value="" style="rounded=1;whiteSpace=wrap;html=1;" vertex="1" parent="1">
          <mxGeometry x="560" y="320" width="120" height="60" as="geometry" />
        </mxCell>
        <mxCell id="2-hJuOmILzFzyRzJbSwl-7" value="" style="rounded=1;whiteSpace=wrap;html=1;" vertex="1" parent="1">
          <mxGeometry x="460" y="620" width="120" height="60" as="geometry" />
        </mxCell>
        <mxCell id="2-hJuOmILzFzyRzJbSwl-8" value="" style="rounded=1;whiteSpace=wrap;html=1;" vertex="1" parent="1">
          <mxGeometry x="660" y="620" width="120" height="60" as="geometry" />
        </mxCell>
        <mxCell id="2-hJuOmILzFzyRzJbSwl-9" value="" style="rhombus;whiteSpace=wrap;html=1;" vertex="1" parent="1">
          <mxGeometry x="480" y="480" width="80" height="80" as="geometry" />
        </mxCell>
        <mxCell id="2-hJuOmILzFzyRzJbSwl-10" value="" style="rhombus;whiteSpace=wrap;html=1;" vertex="1" parent="1">
          <mxGeometry x="680" y="480" width="80" height="80" as="geometry" />
        </mxCell>
        <mxCell id="2-hJuOmILzFzyRzJbSwl-11" value="" style="rhombus;whiteSpace=wrap;html=1;" vertex="1" parent="1">
          <mxGeometry x="200" y="50" width="80" height="80" as="geometry" />
        </mxCell>
        <mxCell id="2-hJuOmILzFzyRzJbSwl-12" value="" style="rhombus;whiteSpace=wrap;html=1;" vertex="1" parent="1">
          <mxGeometry x="380" y="310" width="80" height="80" as="geometry" />
        </mxCell>
        <mxCell id="2-hJuOmILzFzyRzJbSwl-13" value="" style="rounded=1;whiteSpace=wrap;html=1;" vertex="1" parent="1">
          <mxGeometry x="970" y="170" width="120" height="60" as="geometry" />
        </mxCell>
        <mxCell id="2-hJuOmILzFzyRzJbSwl-14" value="" style="rounded=1;whiteSpace=wrap;html=1;" vertex="1" parent="1">
          <mxGeometry x="970" y="400" width="120" height="60" as="geometry" />
        </mxCell>
        <mxCell id="2-hJuOmILzFzyRzJbSwl-15" value="" style="rounded=1;whiteSpace=wrap;html=1;" vertex="1" parent="1">
          <mxGeometry x="1320" y="400" width="120" height="60" as="geometry" />
        </mxCell>
        <mxCell id="2-hJuOmILzFzyRzJbSwl-16" value="" style="rhombus;whiteSpace=wrap;html=1;" vertex="1" parent="1">
          <mxGeometry x="1050" y="610" width="80" height="80" as="geometry" />
        </mxCell>
        <mxCell id="2-hJuOmILzFzyRzJbSwl-17" value="" style="rhombus;whiteSpace=wrap;html=1;" vertex="1" parent="1">
          <mxGeometry x="990" y="270" width="80" height="80" as="geometry" />
        </mxCell>
        <mxCell id="2-hJuOmILzFzyRzJbSwl-18" value="" style="rhombus;whiteSpace=wrap;html=1;" vertex="1" parent="1">
          <mxGeometry x="800" y="160" width="80" height="80" as="geometry" />
        </mxCell>
        <mxCell id="2-hJuOmILzFzyRzJbSwl-19" value="" style="rhombus;whiteSpace=wrap;html=1;" vertex="1" parent="1">
          <mxGeometry x="880" y="50" width="80" height="80" as="geometry" />
        </mxCell>
        <mxCell id="2-hJuOmILzFzyRzJbSwl-20" value="" style="endArrow=classic;html=1;exitX=1;exitY=0.5;exitDx=0;exitDy=0;entryX=0;entryY=0.5;entryDx=0;entryDy=0;" edge="1" parent="1" source="2-hJuOmILzFzyRzJbSwl-12" target="2-hJuOmILzFzyRzJbSwl-3">
          <mxGeometry width="50" height="50" relative="1" as="geometry">
            <mxPoint x="680" y="330" as="sourcePoint" />
            <mxPoint x="730" y="280" as="targetPoint" />
            <Array as="points" />
          </mxGeometry>
        </mxCell>
        <mxCell id="2-hJuOmILzFzyRzJbSwl-21" value="" style="endArrow=classic;html=1;exitX=1;exitY=0.5;exitDx=0;exitDy=0;entryX=0;entryY=0.5;entryDx=0;entryDy=0;" edge="1" parent="1" source="2-hJuOmILzFzyRzJbSwl-18" target="2-hJuOmILzFzyRzJbSwl-13">
          <mxGeometry width="50" height="50" relative="1" as="geometry">
            <mxPoint x="680" y="330" as="sourcePoint" />
            <mxPoint x="730" y="280" as="targetPoint" />
          </mxGeometry>
        </mxCell>
        <mxCell id="2-hJuOmILzFzyRzJbSwl-22" value="" style="endArrow=none;html=1;exitX=1;exitY=0.5;exitDx=0;exitDy=0;entryX=0;entryY=0.5;entryDx=0;entryDy=0;" edge="1" parent="1" source="2-hJuOmILzFzyRzJbSwl-3" target="2-hJuOmILzFzyRzJbSwl-18">
          <mxGeometry width="50" height="50" relative="1" as="geometry">
            <mxPoint x="680" y="330" as="sourcePoint" />
            <mxPoint x="730" y="280" as="targetPoint" />
            <Array as="points">
              <mxPoint x="750" y="350" />
              <mxPoint x="750" y="200" />
            </Array>
          </mxGeometry>
        </mxCell>
        <mxCell id="2-hJuOmILzFzyRzJbSwl-23" value="" style="endArrow=none;html=1;exitX=0;exitY=0.5;exitDx=0;exitDy=0;entryX=1;entryY=0.5;entryDx=0;entryDy=0;" edge="1" parent="1" source="2-hJuOmILzFzyRzJbSwl-12" target="2-hJuOmILzFzyRzJbSwl-1">
          <mxGeometry width="50" height="50" relative="1" as="geometry">
            <mxPoint x="680" y="330" as="sourcePoint" />
            <mxPoint x="730" y="280" as="targetPoint" />
          </mxGeometry>
        </mxCell>
        <mxCell id="2-hJuOmILzFzyRzJbSwl-24" value="" style="endArrow=none;html=1;exitX=0.5;exitY=0;exitDx=0;exitDy=0;entryX=0.5;entryY=1;entryDx=0;entryDy=0;" edge="1" parent="1" source="2-hJuOmILzFzyRzJbSwl-1" target="2-hJuOmILzFzyRzJbSwl-11">
          <mxGeometry width="50" height="50" relative="1" as="geometry">
            <mxPoint x="680" y="330" as="sourcePoint" />
            <mxPoint x="730" y="280" as="targetPoint" />
          </mxGeometry>
        </mxCell>
        <mxCell id="2-hJuOmILzFzyRzJbSwl-25" value="" style="endArrow=classic;html=1;exitX=1;exitY=0.5;exitDx=0;exitDy=0;entryX=0;entryY=0.5;entryDx=0;entryDy=0;" edge="1" parent="1" source="2-hJuOmILzFzyRzJbSwl-11" target="2-hJuOmILzFzyRzJbSwl-2">
          <mxGeometry width="50" height="50" relative="1" as="geometry">
            <mxPoint x="680" y="330" as="sourcePoint" />
            <mxPoint x="730" y="280" as="targetPoint" />
          </mxGeometry>
        </mxCell>
        <mxCell id="2-hJuOmILzFzyRzJbSwl-26" value="" style="endArrow=classic;html=1;exitX=0;exitY=0.5;exitDx=0;exitDy=0;entryX=1;entryY=0.5;entryDx=0;entryDy=0;" edge="1" parent="1" source="2-hJuOmILzFzyRzJbSwl-19" target="2-hJuOmILzFzyRzJbSwl-2">
          <mxGeometry width="50" height="50" relative="1" as="geometry">
            <mxPoint x="680" y="330" as="sourcePoint" />
            <mxPoint x="730" y="280" as="targetPoint" />
          </mxGeometry>
        </mxCell>
        <mxCell id="2-hJuOmILzFzyRzJbSwl-27" value="" style="endArrow=none;html=1;exitX=0.5;exitY=0;exitDx=0;exitDy=0;entryX=1;entryY=0.5;entryDx=0;entryDy=0;" edge="1" parent="1" source="2-hJuOmILzFzyRzJbSwl-15" target="2-hJuOmILzFzyRzJbSwl-19">
          <mxGeometry width="50" height="50" relative="1" as="geometry">
            <mxPoint x="680" y="330" as="sourcePoint" />
            <mxPoint x="730" y="280" as="targetPoint" />
            <Array as="points">
              <mxPoint x="1380" y="90" />
            </Array>
          </mxGeometry>
        </mxCell>
        <mxCell id="2-hJuOmILzFzyRzJbSwl-28" value="" style="endArrow=classic;html=1;exitX=0;exitY=0.5;exitDx=0;exitDy=0;entryX=1;entryY=0.5;entryDx=0;entryDy=0;" edge="1" parent="1" source="2-hJuOmILzFzyRzJbSwl-16" target="2-hJuOmILzFzyRzJbSwl-8">
          <mxGeometry width="50" height="50" relative="1" as="geometry">
            <mxPoint x="680" y="330" as="sourcePoint" />
            <mxPoint x="730" y="280" as="targetPoint" />
          </mxGeometry>
        </mxCell>
        <mxCell id="2-hJuOmILzFzyRzJbSwl-29" value="" style="endArrow=none;html=1;exitX=0.5;exitY=1;exitDx=0;exitDy=0;entryX=1;entryY=0.5;entryDx=0;entryDy=0;" edge="1" parent="1" source="2-hJuOmILzFzyRzJbSwl-15" target="2-hJuOmILzFzyRzJbSwl-16">
          <mxGeometry width="50" height="50" relative="1" as="geometry">
            <mxPoint x="680" y="330" as="sourcePoint" />
            <mxPoint x="730" y="280" as="targetPoint" />
            <Array as="points">
              <mxPoint x="1380" y="650" />
            </Array>
          </mxGeometry>
        </mxCell>
        <mxCell id="2-hJuOmILzFzyRzJbSwl-30" value="" style="endArrow=classic;html=1;exitX=0.5;exitY=1;exitDx=0;exitDy=0;entryX=0.5;entryY=0;entryDx=0;entryDy=0;" edge="1" parent="1" source="2-hJuOmILzFzyRzJbSwl-10" target="2-hJuOmILzFzyRzJbSwl-8">
          <mxGeometry width="50" height="50" relative="1" as="geometry">
            <mxPoint x="680" y="330" as="sourcePoint" />
            <mxPoint x="730" y="280" as="targetPoint" />
          </mxGeometry>
        </mxCell>
        <mxCell id="2-hJuOmILzFzyRzJbSwl-31" value="" style="endArrow=classic;html=1;exitX=0.5;exitY=1;exitDx=0;exitDy=0;entryX=0.5;entryY=0;entryDx=0;entryDy=0;" edge="1" parent="1" source="2-hJuOmILzFzyRzJbSwl-9" target="2-hJuOmILzFzyRzJbSwl-7">
          <mxGeometry width="50" height="50" relative="1" as="geometry">
            <mxPoint x="680" y="330" as="sourcePoint" />
            <mxPoint x="730" y="280" as="targetPoint" />
          </mxGeometry>
        </mxCell>
        <mxCell id="2-hJuOmILzFzyRzJbSwl-32" value="" style="endArrow=none;html=1;exitX=0.5;exitY=1;exitDx=0;exitDy=0;entryX=0.5;entryY=0;entryDx=0;entryDy=0;" edge="1" parent="1" source="2-hJuOmILzFzyRzJbSwl-3" target="2-hJuOmILzFzyRzJbSwl-9">
          <mxGeometry width="50" height="50" relative="1" as="geometry">
            <mxPoint x="680" y="330" as="sourcePoint" />
            <mxPoint x="730" y="280" as="targetPoint" />
            <Array as="points">
              <mxPoint x="620" y="440" />
              <mxPoint x="520" y="440" />
            </Array>
          </mxGeometry>
        </mxCell>
        <mxCell id="2-hJuOmILzFzyRzJbSwl-33" value="" style="endArrow=none;html=1;exitX=0.5;exitY=1;exitDx=0;exitDy=0;entryX=0.5;entryY=0;entryDx=0;entryDy=0;" edge="1" parent="1" source="2-hJuOmILzFzyRzJbSwl-3" target="2-hJuOmILzFzyRzJbSwl-10">
          <mxGeometry width="50" height="50" relative="1" as="geometry">
            <mxPoint x="680" y="330" as="sourcePoint" />
            <mxPoint x="730" y="280" as="targetPoint" />
            <Array as="points">
              <mxPoint x="620" y="440" />
              <mxPoint x="700" y="440" />
              <mxPoint x="720" y="440" />
            </Array>
          </mxGeometry>
        </mxCell>
        <mxCell id="2-hJuOmILzFzyRzJbSwl-34" value="" style="endArrow=classic;html=1;exitX=0;exitY=0.5;exitDx=0;exitDy=0;entryX=1;entryY=0.5;entryDx=0;entryDy=0;" edge="1" parent="1" source="2-hJuOmILzFzyRzJbSwl-35" target="2-hJuOmILzFzyRzJbSwl-14">
          <mxGeometry width="50" height="50" relative="1" as="geometry">
            <mxPoint x="810" y="350" as="sourcePoint" />
            <mxPoint x="730" y="280" as="targetPoint" />
          </mxGeometry>
        </mxCell>
        <mxCell id="2-hJuOmILzFzyRzJbSwl-35" value="" style="rhombus;whiteSpace=wrap;html=1;" vertex="1" parent="1">
          <mxGeometry x="1170" y="390" width="80" height="80" as="geometry" />
        </mxCell>
        <mxCell id="2-hJuOmILzFzyRzJbSwl-36" value="" style="endArrow=none;html=1;entryX=0;entryY=0.5;entryDx=0;entryDy=0;exitX=1;exitY=0.5;exitDx=0;exitDy=0;" edge="1" parent="1" source="2-hJuOmILzFzyRzJbSwl-35" target="2-hJuOmILzFzyRzJbSwl-15">
          <mxGeometry width="50" height="50" relative="1" as="geometry">
            <mxPoint x="680" y="330" as="sourcePoint" />
            <mxPoint x="730" y="280" as="targetPoint" />
          </mxGeometry>
        </mxCell>
        <mxCell id="2-hJuOmILzFzyRzJbSwl-37" value="" style="endArrow=none;html=1;entryX=0.5;entryY=0;entryDx=0;entryDy=0;exitX=0.5;exitY=1;exitDx=0;exitDy=0;" edge="1" parent="1" source="2-hJuOmILzFzyRzJbSwl-13" target="2-hJuOmILzFzyRzJbSwl-17">
          <mxGeometry width="50" height="50" relative="1" as="geometry">
            <mxPoint x="680" y="330" as="sourcePoint" />
            <mxPoint x="730" y="280" as="targetPoint" />
          </mxGeometry>
        </mxCell>
        <mxCell id="2-hJuOmILzFzyRzJbSwl-38" value="" style="endArrow=none;html=1;entryX=0.5;entryY=0;entryDx=0;entryDy=0;exitX=0.5;exitY=1;exitDx=0;exitDy=0;" edge="1" parent="1" source="2-hJuOmILzFzyRzJbSwl-17" target="2-hJuOmILzFzyRzJbSwl-14">
          <mxGeometry width="50" height="50" relative="1" as="geometry">
            <mxPoint x="680" y="330" as="sourcePoint" />
            <mxPoint x="730" y="280" as="targetPoint" />
          </mxGeometry>
        </mxCell>
        <mxCell id="2-hJuOmILzFzyRzJbSwl-39" value="&lt;font style=&quot;font-size: 18px&quot;&gt;Consulta&lt;/font&gt;" style="text;html=1;strokeColor=none;fillColor=none;align=center;verticalAlign=middle;whiteSpace=wrap;rounded=0;" vertex="1" parent="1">
          <mxGeometry x="600" y="72.5" width="40" height="35" as="geometry" />
        </mxCell>
        <mxCell id="2-hJuOmILzFzyRzJbSwl-40" value="&lt;font style=&quot;font-size: 14px&quot;&gt;realiza&lt;/font&gt;" style="text;html=1;strokeColor=none;fillColor=none;align=center;verticalAlign=middle;whiteSpace=wrap;rounded=0;" vertex="1" parent="1">
          <mxGeometry x="220" y="80" width="40" height="20" as="geometry" />
        </mxCell>
        <mxCell id="2-hJuOmILzFzyRzJbSwl-41" value="&lt;font style=&quot;font-size: 14px&quot;&gt;realiza&lt;/font&gt;" style="text;html=1;strokeColor=none;fillColor=none;align=center;verticalAlign=middle;whiteSpace=wrap;rounded=0;" vertex="1" parent="1">
          <mxGeometry x="900" y="80" width="40" height="20" as="geometry" />
        </mxCell>
        <mxCell id="2-hJuOmILzFzyRzJbSwl-42" value="" style="rhombus;whiteSpace=wrap;html=1;" vertex="1" parent="1">
          <mxGeometry x="580" y="190" width="80" height="80" as="geometry" />
        </mxCell>
        <mxCell id="2-hJuOmILzFzyRzJbSwl-43" value="" style="endArrow=none;html=1;exitX=0.5;exitY=0;exitDx=0;exitDy=0;entryX=0.5;entryY=1;entryDx=0;entryDy=0;" edge="1" parent="1" source="2-hJuOmILzFzyRzJbSwl-3" target="2-hJuOmILzFzyRzJbSwl-42">
          <mxGeometry width="50" height="50" relative="1" as="geometry">
            <mxPoint x="680" y="330" as="sourcePoint" />
            <mxPoint x="730" y="280" as="targetPoint" />
          </mxGeometry>
        </mxCell>
        <mxCell id="2-hJuOmILzFzyRzJbSwl-45" value="" style="endArrow=classic;html=1;exitX=0.5;exitY=0;exitDx=0;exitDy=0;entryX=0.5;entryY=1;entryDx=0;entryDy=0;" edge="1" parent="1" source="2-hJuOmILzFzyRzJbSwl-42" target="2-hJuOmILzFzyRzJbSwl-2">
          <mxGeometry width="50" height="50" relative="1" as="geometry">
            <mxPoint x="680" y="330" as="sourcePoint" />
            <mxPoint x="730" y="280" as="targetPoint" />
          </mxGeometry>
        </mxCell>
        <mxCell id="2-hJuOmILzFzyRzJbSwl-46" value="&lt;font style=&quot;font-size: 12px&quot;&gt;disponibiliza&lt;/font&gt;" style="text;html=1;strokeColor=none;fillColor=none;align=center;verticalAlign=middle;whiteSpace=wrap;rounded=0;" vertex="1" parent="1">
          <mxGeometry x="600" y="220" width="40" height="20" as="geometry" />
        </mxCell>
        <mxCell id="2-hJuOmILzFzyRzJbSwl-47" value="&lt;font style=&quot;font-size: 18px&quot;&gt;Leito&lt;/font&gt;" style="text;html=1;strokeColor=none;fillColor=none;align=center;verticalAlign=middle;whiteSpace=wrap;rounded=0;" vertex="1" parent="1">
          <mxGeometry x="600" y="340" width="40" height="20" as="geometry" />
        </mxCell>
        <mxCell id="2-hJuOmILzFzyRzJbSwl-48" value="&lt;font style=&quot;font-size: 14px&quot;&gt;cadastra&lt;/font&gt;" style="text;html=1;strokeColor=none;fillColor=none;align=center;verticalAlign=middle;whiteSpace=wrap;rounded=0;" vertex="1" parent="1">
          <mxGeometry x="400" y="340" width="40" height="20" as="geometry" />
        </mxCell>
        <mxCell id="2-hJuOmILzFzyRzJbSwl-49" value="&lt;font style=&quot;font-size: 18px&quot;&gt;Hospital&lt;/font&gt;" style="text;html=1;strokeColor=none;fillColor=none;align=center;verticalAlign=middle;whiteSpace=wrap;rounded=0;" vertex="1" parent="1">
          <mxGeometry x="220" y="340" width="40" height="20" as="geometry" />
        </mxCell>
        <mxCell id="2-hJuOmILzFzyRzJbSwl-50" value="disponibiliza" style="text;html=1;strokeColor=none;fillColor=none;align=center;verticalAlign=middle;whiteSpace=wrap;rounded=0;" vertex="1" parent="1">
          <mxGeometry x="700" y="510" width="40" height="20" as="geometry" />
        </mxCell>
        <mxCell id="2-hJuOmILzFzyRzJbSwl-51" value="&lt;font style=&quot;font-size: 14px&quot;&gt;gera&lt;/font&gt;" style="text;html=1;strokeColor=none;fillColor=none;align=center;verticalAlign=middle;whiteSpace=wrap;rounded=0;" vertex="1" parent="1">
          <mxGeometry x="500" y="510" width="40" height="20" as="geometry" />
        </mxCell>
        <mxCell id="2-hJuOmILzFzyRzJbSwl-52" value="&lt;font style=&quot;font-size: 18px&quot;&gt;Ocupação&lt;br&gt;(Leito)&lt;/font&gt;" style="text;html=1;strokeColor=none;fillColor=none;align=center;verticalAlign=middle;whiteSpace=wrap;rounded=0;" vertex="1" parent="1">
          <mxGeometry x="500" y="640" width="40" height="20" as="geometry" />
        </mxCell>
        <mxCell id="2-hJuOmILzFzyRzJbSwl-53" value="&lt;font style=&quot;font-size: 18px&quot;&gt;Reserva&lt;br&gt;(Leito)&lt;/font&gt;" style="text;html=1;strokeColor=none;fillColor=none;align=center;verticalAlign=middle;whiteSpace=wrap;rounded=0;" vertex="1" parent="1">
          <mxGeometry x="700" y="640" width="40" height="20" as="geometry" />
        </mxCell>
        <mxCell id="2-hJuOmILzFzyRzJbSwl-54" value="&lt;font style=&quot;font-size: 14px&quot;&gt;ocupa&lt;/font&gt;" style="text;html=1;strokeColor=none;fillColor=none;align=center;verticalAlign=middle;whiteSpace=wrap;rounded=0;" vertex="1" parent="1">
          <mxGeometry x="820" y="190" width="40" height="20" as="geometry" />
        </mxCell>
        <mxCell id="2-hJuOmILzFzyRzJbSwl-55" value="&lt;font style=&quot;font-size: 18px&quot;&gt;Paciente&lt;/font&gt;" style="text;html=1;strokeColor=none;fillColor=none;align=center;verticalAlign=middle;whiteSpace=wrap;rounded=0;" vertex="1" parent="1">
          <mxGeometry x="1010" y="190" width="40" height="20" as="geometry" />
        </mxCell>
        <mxCell id="2-hJuOmILzFzyRzJbSwl-56" value="&lt;font style=&quot;font-size: 14px&quot;&gt;gera&lt;/font&gt;" style="text;html=1;strokeColor=none;fillColor=none;align=center;verticalAlign=middle;whiteSpace=wrap;rounded=0;" vertex="1" parent="1">
          <mxGeometry x="1010" y="300" width="40" height="20" as="geometry" />
        </mxCell>
        <mxCell id="2-hJuOmILzFzyRzJbSwl-57" value="&lt;font style=&quot;font-size: 18px&quot;&gt;Ocorrência&lt;/font&gt;" style="text;html=1;strokeColor=none;fillColor=none;align=center;verticalAlign=middle;whiteSpace=wrap;rounded=0;" vertex="1" parent="1">
          <mxGeometry x="1010" y="420" width="40" height="20" as="geometry" />
        </mxCell>
        <mxCell id="2-hJuOmILzFzyRzJbSwl-58" value="&lt;font style=&quot;font-size: 14px&quot;&gt;realiza&lt;/font&gt;" style="text;html=1;strokeColor=none;fillColor=none;align=center;verticalAlign=middle;whiteSpace=wrap;rounded=0;" vertex="1" parent="1">
          <mxGeometry x="1070" y="640" width="40" height="20" as="geometry" />
        </mxCell>
        <mxCell id="2-hJuOmILzFzyRzJbSwl-59" value="&lt;font style=&quot;font-size: 14px&quot;&gt;atende&lt;/font&gt;" style="text;html=1;strokeColor=none;fillColor=none;align=center;verticalAlign=middle;whiteSpace=wrap;rounded=0;" vertex="1" parent="1">
          <mxGeometry x="1190" y="420" width="40" height="20" as="geometry" />
        </mxCell>
        <mxCell id="2-hJuOmILzFzyRzJbSwl-60" value="&lt;font style=&quot;font-size: 18px&quot;&gt;Ambulância&lt;/font&gt;" style="text;html=1;strokeColor=none;fillColor=none;align=center;verticalAlign=middle;whiteSpace=wrap;rounded=0;" vertex="1" parent="1">
          <mxGeometry x="1360" y="420" width="40" height="20" as="geometry" />
        </mxCell>
        <mxCell id="2-hJuOmILzFzyRzJbSwl-63" value="&lt;font style=&quot;font-size: 14px&quot;&gt;N&lt;/font&gt;" style="text;html=1;strokeColor=none;fillColor=none;align=center;verticalAlign=middle;whiteSpace=wrap;rounded=0;" vertex="1" parent="1">
          <mxGeometry x="520" y="320" width="40" height="20" as="geometry" />
        </mxCell>
        <mxCell id="2-hJuOmILzFzyRzJbSwl-64" value="&lt;font style=&quot;font-size: 14px&quot;&gt;1&lt;/font&gt;" style="text;html=1;strokeColor=none;fillColor=none;align=center;verticalAlign=middle;whiteSpace=wrap;rounded=0;" vertex="1" parent="1">
          <mxGeometry x="680" y="320" width="40" height="20" as="geometry" />
        </mxCell>
        <mxCell id="2-hJuOmILzFzyRzJbSwl-65" value="&lt;font style=&quot;font-size: 14px&quot;&gt;1&lt;/font&gt;" style="text;html=1;strokeColor=none;fillColor=none;align=center;verticalAlign=middle;whiteSpace=wrap;rounded=0;" vertex="1" parent="1">
          <mxGeometry x="300" y="320" width="40" height="20" as="geometry" />
        </mxCell>
        <mxCell id="2-hJuOmILzFzyRzJbSwl-66" value="&lt;font style=&quot;font-size: 14px&quot;&gt;1&lt;/font&gt;" style="text;html=1;strokeColor=none;fillColor=none;align=center;verticalAlign=middle;whiteSpace=wrap;rounded=0;" vertex="1" parent="1">
          <mxGeometry x="260" y="300" width="40" height="20" as="geometry" />
        </mxCell>
        <mxCell id="2-hJuOmILzFzyRzJbSwl-67" value="&lt;font style=&quot;font-size: 14px&quot;&gt;N&lt;/font&gt;" style="text;html=1;strokeColor=none;fillColor=none;align=center;verticalAlign=middle;whiteSpace=wrap;rounded=0;" vertex="1" parent="1">
          <mxGeometry x="520" y="100" width="40" height="20" as="geometry" />
        </mxCell>
        <mxCell id="2-hJuOmILzFzyRzJbSwl-68" value="&lt;font style=&quot;font-size: 14px&quot;&gt;N&lt;/font&gt;" style="text;html=1;strokeColor=none;fillColor=none;align=center;verticalAlign=middle;whiteSpace=wrap;rounded=0;" vertex="1" parent="1">
          <mxGeometry x="680" y="100" width="40" height="20" as="geometry" />
        </mxCell>
        <mxCell id="2-hJuOmILzFzyRzJbSwl-69" value="&lt;font style=&quot;font-size: 14px&quot;&gt;1&lt;/font&gt;" style="text;html=1;strokeColor=none;fillColor=none;align=center;verticalAlign=middle;whiteSpace=wrap;rounded=0;" vertex="1" parent="1">
          <mxGeometry x="930" y="170" width="40" height="20" as="geometry" />
        </mxCell>
        <mxCell id="2-hJuOmILzFzyRzJbSwl-70" value="&lt;font style=&quot;font-size: 14px&quot;&gt;N&lt;/font&gt;" style="text;html=1;strokeColor=none;fillColor=none;align=center;verticalAlign=middle;whiteSpace=wrap;rounded=0;" vertex="1" parent="1">
          <mxGeometry x="1050" y="230" width="40" height="20" as="geometry" />
        </mxCell>
        <mxCell id="2-hJuOmILzFzyRzJbSwl-71" value="&lt;font style=&quot;font-size: 14px&quot;&gt;1&lt;/font&gt;" style="text;html=1;strokeColor=none;fillColor=none;align=center;verticalAlign=middle;whiteSpace=wrap;rounded=0;" vertex="1" parent="1">
          <mxGeometry x="1050" y="380" width="40" height="20" as="geometry" />
        </mxCell>
        <mxCell id="2-hJuOmILzFzyRzJbSwl-72" value="&lt;font style=&quot;font-size: 14px&quot;&gt;N&lt;/font&gt;" style="text;html=1;strokeColor=none;fillColor=none;align=center;verticalAlign=middle;whiteSpace=wrap;rounded=0;" vertex="1" parent="1">
          <mxGeometry x="1090" y="400" width="40" height="20" as="geometry" />
        </mxCell>
        <mxCell id="2-hJuOmILzFzyRzJbSwl-73" value="&lt;font style=&quot;font-size: 14px&quot;&gt;1&lt;/font&gt;" style="text;html=1;strokeColor=none;fillColor=none;align=center;verticalAlign=middle;whiteSpace=wrap;rounded=0;" vertex="1" parent="1">
          <mxGeometry x="1280" y="400" width="40" height="20" as="geometry" />
        </mxCell>
        <mxCell id="2-hJuOmILzFzyRzJbSwl-74" value="&lt;font style=&quot;font-size: 14px&quot;&gt;CNPJ(pk)&lt;/font&gt;" style="text;html=1;strokeColor=none;fillColor=none;align=center;verticalAlign=middle;whiteSpace=wrap;rounded=0;" vertex="1" parent="1">
          <mxGeometry x="190" y="380" width="40" height="20" as="geometry" />
        </mxCell>
        <mxCell id="2-hJuOmILzFzyRzJbSwl-75" value="&lt;font style=&quot;font-size: 14px&quot;&gt;CEP&lt;/font&gt;" style="text;html=1;strokeColor=none;fillColor=none;align=center;verticalAlign=middle;whiteSpace=wrap;rounded=0;" vertex="1" parent="1">
          <mxGeometry x="180" y="410" width="40" height="20" as="geometry" />
        </mxCell>
        <mxCell id="2-hJuOmILzFzyRzJbSwl-76" value="&lt;font style=&quot;font-size: 14px&quot;&gt;Telefone&lt;/font&gt;" style="text;html=1;strokeColor=none;fillColor=none;align=center;verticalAlign=middle;whiteSpace=wrap;rounded=0;" vertex="1" parent="1">
          <mxGeometry x="190" y="440" width="40" height="20" as="geometry" />
        </mxCell>
        <mxCell id="2-hJuOmILzFzyRzJbSwl-77" value="&lt;font style=&quot;font-size: 14px&quot;&gt;Nome&lt;/font&gt;" style="text;html=1;strokeColor=none;fillColor=none;align=center;verticalAlign=middle;whiteSpace=wrap;rounded=0;" vertex="1" parent="1">
          <mxGeometry x="260" y="380" width="40" height="20" as="geometry" />
        </mxCell>
        <mxCell id="2-hJuOmILzFzyRzJbSwl-78" value="&lt;font style=&quot;font-size: 14px&quot;&gt;Endereço&lt;/font&gt;" style="text;html=1;strokeColor=none;fillColor=none;align=center;verticalAlign=middle;whiteSpace=wrap;rounded=0;" vertex="1" parent="1">
          <mxGeometry x="270" y="410" width="40" height="20" as="geometry" />
        </mxCell>
        <mxCell id="2-hJuOmILzFzyRzJbSwl-79" value="&lt;font style=&quot;font-size: 14px&quot;&gt;Status&lt;/font&gt;" style="text;html=1;strokeColor=none;fillColor=none;align=center;verticalAlign=middle;whiteSpace=wrap;rounded=0;" vertex="1" parent="1">
          <mxGeometry x="570" y="380" width="40" height="20" as="geometry" />
        </mxCell>
        <mxCell id="2-hJuOmILzFzyRzJbSwl-80" value="&lt;font style=&quot;font-size: 14px&quot;&gt;ID&lt;/font&gt;" style="text;html=1;strokeColor=none;fillColor=none;align=center;verticalAlign=middle;whiteSpace=wrap;rounded=0;" vertex="1" parent="1">
          <mxGeometry x="630" y="380" width="40" height="20" as="geometry" />
        </mxCell>
        <mxCell id="2-hJuOmILzFzyRzJbSwl-81" value="&lt;font style=&quot;font-size: 14px&quot;&gt;Tipo&lt;/font&gt;" style="text;html=1;strokeColor=none;fillColor=none;align=center;verticalAlign=middle;whiteSpace=wrap;rounded=0;" vertex="1" parent="1">
          <mxGeometry x="570" y="410" width="40" height="20" as="geometry" />
        </mxCell>
        <mxCell id="2-hJuOmILzFzyRzJbSwl-82" value="&lt;font style=&quot;font-size: 14px&quot;&gt;Tipo&lt;/font&gt;" style="text;html=1;strokeColor=none;fillColor=none;align=center;verticalAlign=middle;whiteSpace=wrap;rounded=0;" vertex="1" parent="1">
          <mxGeometry x="1390" y="460" width="40" height="20" as="geometry" />
        </mxCell>
        <mxCell id="2-hJuOmILzFzyRzJbSwl-83" value="&lt;font style=&quot;font-size: 14px&quot;&gt;1&lt;/font&gt;" style="text;html=1;strokeColor=none;fillColor=none;align=center;verticalAlign=middle;whiteSpace=wrap;rounded=0;" vertex="1" parent="1">
          <mxGeometry x="1320" y="460" width="40" height="20" as="geometry" />
        </mxCell>
        <mxCell id="2-hJuOmILzFzyRzJbSwl-84" value="&lt;font style=&quot;font-size: 14px&quot;&gt;1&lt;/font&gt;" style="text;html=1;strokeColor=none;fillColor=none;align=center;verticalAlign=middle;whiteSpace=wrap;rounded=0;" vertex="1" parent="1">
          <mxGeometry x="780" y="620" width="40" height="20" as="geometry" />
        </mxCell>
      </root>
    </mxGraphModel>
  </diagram>
</mxfile>
